<mxfile host="app.diagrams.net" modified="2022-09-10T17:05:57.364Z" agent="5.0 (Macintosh; Intel Mac OS X 10_15_7) AppleWebKit/605.1.15 (KHTML, like Gecko) Version/15.6.1 Safari/605.1.15" etag="3HPKnYe4zKhCiCwVWz9i" version="20.2.8" type="github">
  <diagram id="DTkBFxtLoc52GuD9MX7P" name="Página-1">
    <mxGraphModel dx="1252" dy="597" grid="1" gridSize="10" guides="1" tooltips="1" connect="1" arrows="1" fold="1" page="1" pageScale="1" pageWidth="827" pageHeight="1169" math="0" shadow="0">
      <root>
        <mxCell id="0" />
        <mxCell id="1" parent="0" />
        <mxCell id="dsjnR1dRD49pDNXUvyJ4-1" value="Process Service" style="verticalAlign=top;align=center;spacingTop=8;spacingLeft=2;spacingRight=12;shape=cube;size=10;direction=south;fontStyle=4;html=1;fillColor=#FFD966;" vertex="1" parent="1">
          <mxGeometry x="80" y="420" width="640" height="460" as="geometry" />
        </mxCell>
        <mxCell id="dsjnR1dRD49pDNXUvyJ4-2" value="«component»&lt;br&gt;&lt;b&gt;RecopiladorDatos&lt;/b&gt;" style="html=1;dropTarget=0;" vertex="1" parent="1">
          <mxGeometry x="100" y="510" width="190" height="70" as="geometry" />
        </mxCell>
        <mxCell id="dsjnR1dRD49pDNXUvyJ4-3" value="" style="shape=module;jettyWidth=8;jettyHeight=4;" vertex="1" parent="dsjnR1dRD49pDNXUvyJ4-2">
          <mxGeometry x="1" width="20" height="20" relative="1" as="geometry">
            <mxPoint x="-27" y="7" as="offset" />
          </mxGeometry>
        </mxCell>
        <mxCell id="dsjnR1dRD49pDNXUvyJ4-4" value="«component»&lt;br&gt;&lt;b&gt;GestorDispositivos&lt;/b&gt;" style="html=1;dropTarget=0;" vertex="1" parent="1">
          <mxGeometry x="100" y="600" width="190" height="60" as="geometry" />
        </mxCell>
        <mxCell id="dsjnR1dRD49pDNXUvyJ4-5" value="" style="shape=module;jettyWidth=8;jettyHeight=4;" vertex="1" parent="dsjnR1dRD49pDNXUvyJ4-4">
          <mxGeometry x="1" width="20" height="20" relative="1" as="geometry">
            <mxPoint x="-27" y="7" as="offset" />
          </mxGeometry>
        </mxCell>
        <mxCell id="dsjnR1dRD49pDNXUvyJ4-6" value="«thread»&lt;br&gt;&lt;b&gt;Notificacion(1..10)&lt;/b&gt;" style="html=1;dropTarget=0;" vertex="1" parent="1">
          <mxGeometry x="100" y="690" width="190" height="60" as="geometry" />
        </mxCell>
        <mxCell id="dsjnR1dRD49pDNXUvyJ4-7" value="" style="shape=module;jettyWidth=8;jettyHeight=4;" vertex="1" parent="dsjnR1dRD49pDNXUvyJ4-6">
          <mxGeometry x="1" width="20" height="20" relative="1" as="geometry">
            <mxPoint x="-27" y="7" as="offset" />
          </mxGeometry>
        </mxCell>
        <mxCell id="dsjnR1dRD49pDNXUvyJ4-8" value="Block" style="verticalAlign=top;align=left;spacingTop=8;spacingLeft=2;spacingRight=12;shape=cube;size=10;direction=south;fontStyle=4;html=1;fillColor=#B9E0A5;" vertex="1" parent="1">
          <mxGeometry x="510" y="505" width="180" height="120" as="geometry" />
        </mxCell>
        <mxCell id="dsjnR1dRD49pDNXUvyJ4-9" value="" style="verticalAlign=top;align=left;spacingTop=8;spacingLeft=2;spacingRight=12;shape=cube;size=10;direction=south;fontStyle=4;html=1;fillColor=#B9E0A5;" vertex="1" parent="1">
          <mxGeometry x="470" y="480" width="180" height="130" as="geometry" />
        </mxCell>
        <mxCell id="dsjnR1dRD49pDNXUvyJ4-10" value="Node" style="verticalAlign=top;align=center;spacingTop=8;spacingLeft=2;spacingRight=12;shape=cube;size=10;direction=south;fontStyle=4;html=1;fillColor=#B9E0A5;" vertex="1" parent="1">
          <mxGeometry x="420" y="465" width="200" height="135" as="geometry" />
        </mxCell>
        <mxCell id="dsjnR1dRD49pDNXUvyJ4-11" value="«thread»&lt;br&gt;&lt;b&gt;&lt;font style=&quot;font-size: 10px;&quot;&gt;GestorSeñalesMonitoreo(1..20)&lt;/font&gt;&lt;br&gt;&lt;/b&gt;" style="html=1;dropTarget=0;" vertex="1" parent="1">
          <mxGeometry x="430" y="510" width="170" height="60" as="geometry" />
        </mxCell>
        <mxCell id="dsjnR1dRD49pDNXUvyJ4-12" value="" style="shape=module;jettyWidth=8;jettyHeight=4;" vertex="1" parent="dsjnR1dRD49pDNXUvyJ4-11">
          <mxGeometry x="1" width="20" height="20" relative="1" as="geometry">
            <mxPoint x="-27" y="7" as="offset" />
          </mxGeometry>
        </mxCell>
        <mxCell id="dsjnR1dRD49pDNXUvyJ4-13" value="" style="verticalAlign=top;align=left;spacingTop=8;spacingLeft=2;spacingRight=12;shape=cube;size=10;direction=south;fontStyle=4;html=1;fillColor=#B9E0A5;" vertex="1" parent="1">
          <mxGeometry x="470" y="730" width="210" height="130" as="geometry" />
        </mxCell>
        <mxCell id="dsjnR1dRD49pDNXUvyJ4-14" value="" style="verticalAlign=top;align=left;spacingTop=8;spacingLeft=2;spacingRight=12;shape=cube;size=10;direction=south;fontStyle=4;html=1;fillColor=#B9E0A5;" vertex="1" parent="1">
          <mxGeometry x="430" y="700" width="210" height="130" as="geometry" />
        </mxCell>
        <mxCell id="dsjnR1dRD49pDNXUvyJ4-15" value="Node" style="verticalAlign=top;align=center;spacingTop=8;spacingLeft=2;spacingRight=12;shape=cube;size=10;direction=south;fontStyle=4;html=1;fillColor=#B9E0A5;" vertex="1" parent="1">
          <mxGeometry x="390" y="675" width="210" height="130" as="geometry" />
        </mxCell>
        <mxCell id="dsjnR1dRD49pDNXUvyJ4-16" value="«thread»&lt;br&gt;&lt;b&gt;GestorUbicacion(1..20)&lt;br&gt;&lt;/b&gt;" style="html=1;dropTarget=0;" vertex="1" parent="1">
          <mxGeometry x="414" y="720" width="160" height="60" as="geometry" />
        </mxCell>
        <mxCell id="dsjnR1dRD49pDNXUvyJ4-17" value="" style="shape=module;jettyWidth=8;jettyHeight=4;" vertex="1" parent="dsjnR1dRD49pDNXUvyJ4-16">
          <mxGeometry x="1" width="20" height="20" relative="1" as="geometry">
            <mxPoint x="-27" y="7" as="offset" />
          </mxGeometry>
        </mxCell>
        <mxCell id="dsjnR1dRD49pDNXUvyJ4-18" value="" style="shape=flexArrow;endArrow=classic;html=1;rounded=0;exitX=0.75;exitY=0;exitDx=0;exitDy=0;fillColor=#FF3333;" edge="1" parent="1" source="dsjnR1dRD49pDNXUvyJ4-12">
          <mxGeometry width="50" height="50" relative="1" as="geometry">
            <mxPoint x="960" y="450" as="sourcePoint" />
            <mxPoint x="1010" y="400" as="targetPoint" />
          </mxGeometry>
        </mxCell>
        <mxCell id="dsjnR1dRD49pDNXUvyJ4-19" value="Pirincipal server" style="verticalAlign=top;align=center;spacingTop=8;spacingLeft=2;spacingRight=12;shape=cube;size=10;direction=south;fontStyle=4;html=1;fillColor=#B9E0A5;" vertex="1" parent="1">
          <mxGeometry x="1170" y="170" width="200" height="135" as="geometry" />
        </mxCell>
        <mxCell id="dsjnR1dRD49pDNXUvyJ4-20" value="«component»&lt;br&gt;&lt;b&gt;&lt;font style=&quot;font-size: 10px;&quot;&gt;GestorSeñalesMonitoreo&lt;/font&gt;&lt;br&gt;&lt;/b&gt;" style="html=1;dropTarget=0;" vertex="1" parent="1">
          <mxGeometry x="1185" y="220" width="170" height="60" as="geometry" />
        </mxCell>
        <mxCell id="dsjnR1dRD49pDNXUvyJ4-21" value="" style="shape=module;jettyWidth=8;jettyHeight=4;" vertex="1" parent="dsjnR1dRD49pDNXUvyJ4-20">
          <mxGeometry x="1" width="20" height="20" relative="1" as="geometry">
            <mxPoint x="-27" y="7" as="offset" />
          </mxGeometry>
        </mxCell>
        <mxCell id="dsjnR1dRD49pDNXUvyJ4-22" value="Server &amp;nbsp;N" style="verticalAlign=top;align=center;spacingTop=8;spacingLeft=2;spacingRight=12;shape=cube;size=10;direction=south;fontStyle=4;html=1;fillColor=#B9E0A5;" vertex="1" parent="1">
          <mxGeometry x="1035" y="340" width="200" height="135" as="geometry" />
        </mxCell>
        <mxCell id="dsjnR1dRD49pDNXUvyJ4-23" value="«component»&lt;br&gt;&lt;b&gt;&lt;font style=&quot;font-size: 10px;&quot;&gt;GestorSeñalesMonitoreo&lt;/font&gt;&lt;br&gt;&lt;/b&gt;" style="html=1;dropTarget=0;" vertex="1" parent="1">
          <mxGeometry x="1045" y="390" width="170" height="60" as="geometry" />
        </mxCell>
        <mxCell id="dsjnR1dRD49pDNXUvyJ4-24" value="" style="shape=module;jettyWidth=8;jettyHeight=4;" vertex="1" parent="dsjnR1dRD49pDNXUvyJ4-23">
          <mxGeometry x="1" width="20" height="20" relative="1" as="geometry">
            <mxPoint x="-27" y="7" as="offset" />
          </mxGeometry>
        </mxCell>
        <mxCell id="dsjnR1dRD49pDNXUvyJ4-26" value="Server N" style="verticalAlign=top;align=center;spacingTop=8;spacingLeft=2;spacingRight=12;shape=cube;size=10;direction=south;fontStyle=4;html=1;fillColor=#B9E0A5;" vertex="1" parent="1">
          <mxGeometry x="1320" y="340" width="200" height="135" as="geometry" />
        </mxCell>
        <mxCell id="dsjnR1dRD49pDNXUvyJ4-27" value="«component»&lt;br&gt;&lt;b&gt;&lt;font style=&quot;font-size: 10px;&quot;&gt;GestorSeñalesMonitoreo&lt;/font&gt;&lt;br&gt;&lt;/b&gt;" style="html=1;dropTarget=0;" vertex="1" parent="1">
          <mxGeometry x="1330" y="390" width="170" height="60" as="geometry" />
        </mxCell>
        <mxCell id="dsjnR1dRD49pDNXUvyJ4-28" value="" style="shape=module;jettyWidth=8;jettyHeight=4;" vertex="1" parent="dsjnR1dRD49pDNXUvyJ4-27">
          <mxGeometry x="1" width="20" height="20" relative="1" as="geometry">
            <mxPoint x="-27" y="7" as="offset" />
          </mxGeometry>
        </mxCell>
        <mxCell id="dsjnR1dRD49pDNXUvyJ4-34" value="" style="endArrow=none;dashed=1;html=1;dashPattern=1 3;strokeWidth=2;rounded=0;fillColor=#FF3333;" edge="1" parent="1">
          <mxGeometry width="50" height="50" relative="1" as="geometry">
            <mxPoint x="1370" y="500" as="sourcePoint" />
            <mxPoint x="1160" y="500" as="targetPoint" />
          </mxGeometry>
        </mxCell>
        <mxCell id="dsjnR1dRD49pDNXUvyJ4-35" value="N Nodes &amp;lt; 10 instances&amp;nbsp;" style="text;html=1;strokeColor=none;fillColor=none;align=center;verticalAlign=middle;whiteSpace=wrap;rounded=0;" vertex="1" parent="1">
          <mxGeometry x="1185" y="505" width="169" height="30" as="geometry" />
        </mxCell>
        <mxCell id="dsjnR1dRD49pDNXUvyJ4-37" value="" style="endArrow=none;html=1;rounded=0;align=center;verticalAlign=top;endFill=0;labelBackgroundColor=none;endSize=2;exitX=0;exitY=0;exitDx=0;exitDy=95;exitPerimeter=0;" edge="1" parent="1" source="dsjnR1dRD49pDNXUvyJ4-22" target="dsjnR1dRD49pDNXUvyJ4-19">
          <mxGeometry relative="1" as="geometry">
            <mxPoint x="1060" y="240.81784658565306" as="sourcePoint" />
            <mxPoint x="1130" y="200" as="targetPoint" />
            <Array as="points">
              <mxPoint x="1140" y="240" />
            </Array>
          </mxGeometry>
        </mxCell>
        <mxCell id="dsjnR1dRD49pDNXUvyJ4-38" value="" style="endArrow=none;html=1;rounded=0;align=center;verticalAlign=top;endFill=0;labelBackgroundColor=none;endSize=2;entryX=0;entryY=0;entryDx=0;entryDy=95;entryPerimeter=0;exitX=0.533;exitY=-0.01;exitDx=0;exitDy=0;exitPerimeter=0;" edge="1" parent="1" source="dsjnR1dRD49pDNXUvyJ4-19" target="dsjnR1dRD49pDNXUvyJ4-26">
          <mxGeometry relative="1" as="geometry">
            <mxPoint x="1390" y="237.81784658565311" as="sourcePoint" />
            <mxPoint x="1460" y="260" as="targetPoint" />
            <Array as="points">
              <mxPoint x="1420" y="242" />
            </Array>
          </mxGeometry>
        </mxCell>
        <mxCell id="dsjnR1dRD49pDNXUvyJ4-39" value="TCP" style="text;html=1;align=center;verticalAlign=middle;resizable=0;points=[];autosize=1;strokeColor=none;fillColor=none;" vertex="1" parent="1">
          <mxGeometry x="1100" y="250" width="50" height="30" as="geometry" />
        </mxCell>
        <mxCell id="dsjnR1dRD49pDNXUvyJ4-40" value="TCP" style="text;html=1;align=center;verticalAlign=middle;resizable=0;points=[];autosize=1;strokeColor=none;fillColor=none;" vertex="1" parent="1">
          <mxGeometry x="1410" y="250" width="50" height="30" as="geometry" />
        </mxCell>
      </root>
    </mxGraphModel>
  </diagram>
</mxfile>
